<svg width="0" height="0" class="hidden">
  <symbol viewBox="0 0 512 512" xmlns="http://www.w3.org/2000/svg" id="github">
    <path d="M256 0C115.3 0 0 116.3 0 257c0 139.883 114.25 255 256 255 141.574 0 256-114.945 256-255C512 116.3 396.7 0 256 0zm45 477.5c-14.398 3-29.7 4.5-45 4.5s-30.602-1.5-45-4.5v-70.2c0-16.8 4.5-22.8 10.5-30.902 3.055-3.492 4.898-6.625 18.598-27.296L217 345.5c-59.402-8.7-82.8-39.602-92.102-63.602-12-32.097-5.699-72.3 15.903-97.796 3.3-3.903 6-10.504 3.601-17.403-4.504-13.8-3.902-35.699-.902-44.101 15.906 2.273 32.262 13.668 45.902 21.902 6.286 3.668 9.582 2.7 12.598 3 10.96-2.281 28.059-7.8 54.3-7.8 16.2 0 33.302 2.398 50.102 7.198 3.004-.07 7.832 2.485 16.2-2.398 14.257-8.687 30.058-19.691 45.898-21.902 3 8.402 3.602 30.3-.898 44.101-2.403 6.899.296 13.5 3.601 17.403 21.598 25.5 27.899 65.699 15.899 97.796-9.301 24-32.7 54.903-92.102 63.602l-23.098 3.602c14.16 21.367 15.653 23.93 18.602 27.296C296.5 384.5 301 390.5 301 407.301zm30-8.7v-61.5c0-17.1-3.602-28.5-8.402-36.902 45.601-12.296 78.004-39.3 92.402-78 15.3-40.796 8.402-89.398-17.102-123 4.504-20.097 4.504-52.199-6.296-67.199C386.8 95.602 380.199 92 371.8 92h-.301c-23.262 1.258-41.57 12.973-61.2 24.898-18-4.8-36.3-7.199-54.6-7.199-18.598 0-37.2 2.7-53.696 7.2C181.34 104.437 163.207 93.226 139.3 92c-7.5 0-14.102 3.602-18.903 10.2-10.796 15-10.796 47.1-6.296 67.198-25.504 33.602-32.403 82.5-17.102 123 14.398 38.7 46.8 65.704 92.402 78-3.722 6.512-6.668 14.915-7.828 26.286-9.21 3.175-17.199 4.21-24.629 2.027-7.836-2.316-13.941-7.547-19.246-16.469-11.914-20.015-32.207-36.355-55.312-34.23l2.636 29.883c10.7-.98 21.348 10.34 26.88 19.671 9.124 15.368 21.417 25.446 36.546 29.914 11.23 3.31 21.496 3.23 32.551.872V468.8C93.7 438.199 30 354.8 30 257 30 132.8 131.8 30 256 30s226 102.8 226 227c0 97.8-63.7 181.2-151 211.8zm0 0"></path>
  </symbol>
  <symbol viewBox="0 0 24 24" xmlns="http://www.w3.org/2000/svg" id="linkedin">
    <path d="M18.59 24l4.66-.001a.75.75 0 0 0 .75-.75c-.35-7.857 1.842-16.148-6.338-16.148-1.573 0-2.826.537-3.729 1.247 0-1.461-1.579-.653-5.224-.87a.75.75 0 0 0-.75.75c.302 14.166-.674 15.771.75 15.771h4.66c1.353 0 .492-1.908.75-8.188 0-2.594.75-3.102 2.046-3.102 1.434 0 1.675.996 1.675 3.228.257 6.167-.598 8.063.75 8.063zm-2.425-12.791c-4.491 0-3.546 4.938-3.546 11.29h-3.16V8.978h2.974v1.298c0 .72 1.097 1.074 1.479.35.492-.934 1.77-2.025 3.75-2.025 3.527 0 4.838 1.733 4.838 6.396V22.5h-3.16c0-7.144.756-11.291-3.175-11.291zM1.122 7.479c-1.42 0-.448 1.585-.75 15.771 0 .414.336.75.75.75h4.665c1.42 0 .448-1.585.75-15.771 0-1.295-1.881-.531-5.415-.75zM5.037 22.5H1.872V8.979h3.165zM3.452 0c-4.576 0-4.548 6.929 0 6.929 4.545 0 4.581-6.929 0-6.929zm0 5.429C.884 5.429.86 1.5 3.452 1.5c2.597 0 2.564 3.929 0 3.929z"></path>
  </symbol>
  <symbol viewBox="0 -47 512 512" xmlns="http://www.w3.org/2000/svg" id="twitter">
    <path d="M512 55.965c-32.207 1.484-31.504 1.363-35.145 1.668L495.93 3.16s-59.54 21.902-74.633 25.82c-39.64-35.628-98.563-37.203-140.688-11.312-34.496 21.207-53.011 57.625-46.836 100.191C166.637 108.543 110.07 76.72 65.41 23.07L51.285 6.105 40.73 25.488C27.39 49.98 22.96 77.984 28.254 104.34a113.287 113.287 0 0 0 10.976 30.78l-12.117-4.695-1.437 20.246c-1.457 20.566 5.39 44.574 18.32 64.215a114.185 114.185 0 0 0 14.27 17.597l-6.262-.96 7.64 23.199c10.043 30.48 30.903 54.062 57.973 67.172-27.035 11.472-48.875 18.793-84.773 30.601L0 363.293l30.336 16.586c11.566 6.324 52.437 27.445 92.82 33.781 89.766 14.078 190.832 2.613 258.871-58.664 57.309-51.613 76.114-125.031 72.207-201.433-.59-11.567 2.579-22.606 8.922-31.079 12.707-16.964 48.766-66.406 48.844-66.52zm-72.832 48.55c-10.535 14.067-15.813 32.032-14.867 50.579 3.941 77.066-17.028 136.832-62.328 177.629-52.918 47.66-138.274 66.367-234.172 51.324-17.367-2.723-35.317-8.82-50.172-14.91 30.098-10.356 53.34-19.586 90.875-37.352l52.398-24.8-57.851-3.704c-27.711-1.773-50.785-15.203-64.969-37.008a103.763 103.763 0 0 0 22.023-3.671l55.176-15.368-55.636-13.625c-27.036-6.62-42.446-22.797-50.614-35.203-5.363-8.152-8.867-16.504-10.969-24.203 5.579 1.496 12.083 2.563 22.57 3.602l51.497 5.093-40.8-31.828c-29.4-22.93-41.18-57.379-32.544-90.496 91.75 95.164 199.477 88.012 210.32 90.528-2.386-23.184-2.449-23.239-3.074-25.446-13.886-49.09 16.547-74.015 30.274-82.453 28.672-17.621 74.183-20.277 105.707 8.754 6.808 6.266 16.015 8.73 24.633 6.59 7.734-1.922 14.082-3.957 20.296-6.172L434.004 89.32l16.516.012a8240.32 8240.32 0 0 1-11.352 15.184zm0 0"></path>
  </symbol>
  <symbol xmlns="http://www.w3.org/2000/svg" viewBox="0 0 512 512" id="mail">
    <path d="M467 61H45C20.218 61 0 81.196 0 106v300c0 24.72 20.128 45 45 45h422c24.72 0 45-20.128 45-45V106c0-24.72-20.128-45-45-45zm-6.214 30L256.954 294.833 51.359 91h409.427zM30 399.788V112.069l144.479 143.24L30 399.788zM51.213 421l144.57-144.57 50.657 50.222c5.864 5.814 15.327 5.795 21.167-.046L317 277.213 460.787 421H51.213zM482 399.787L338.213 256 482 112.212v287.575z"></path>
  </symbol>
</svg>